FFmpeg version SVN-r25716, Copyright (c) 2000-2010 the FFmpeg developers  built on Nov 10 2010 12:23:18 with gcc 4.1.2 20080704 (Red Hat 4.1.2-48)  configuration: --enable-libmp3lame --enable-shared --disable-mmx --arch=x86_64  libavutil     50.33. 0 / 50.33. 0  libavcore      0.12. 1 /  0.12. 1  libavcodec    52.94. 4 / 52.94. 4  libavformat   52.84. 0 / 52.84. 0  libavdevice   52. 2. 2 / 52. 2. 2  libavfilter    1.59. 0 /  1.59. 0  libswscale     0.12. 0 /  0.12. 0Seems stream 0 codec frame rate differs from container frame rate: 2000000.00 (2000000/1) -> 33.00 (1000000/30303)Input #0, mov,mp4,m4a,3gp,3g2,mj2, from '/RAID10/data/converted_video_files/24046.mov':  Metadata:    major_brand     : qt      minor_version   : 537199360    compatible_brands: qt    Duration: 00:00:07.33, start: 0.000000, bitrate: 1031 kb/s    Stream #0.0(eng): Video: h264, yuv420p, 452x240, 1026 kb/s, 33.01 fps, 33 tbr, 1000k tbn, 2000k tbc[buffer @ 0x129492e0] w:452 h:240 pixfmt:yuv420pOutput #0, flv, to '/RAID10/data/converted_video_files/24046.flv':  Metadata:    encoder         : Lavf52.84.0    Stream #0.0(eng): Video: flv, yuv420p, 452x240, q=2-31, 600 kb/s, 1k tbn, 24 tbcStream mapping:  Stream #0.0 -> #0.0Press [q] to stop encodingframe=   28 fps=  0 q=3.9 size=     216kB time=1.17 bitrate=1519.6kbits/s dup=0 drop=10    frame=   64 fps= 62 q=4.7 size=     352kB time=2.67 bitrate=1080.4kbits/s dup=0 drop=23    frame=   98 fps= 64 q=4.5 size=     485kB time=4.08 bitrate= 974.1kbits/s dup=0 drop=36    frame=  141 fps= 68 q=5.1 size=     634kB time=5.88 bitrate= 884.3kbits/s dup=0 drop=52    frame=  176 fps= 75 q=5.0 Lsize=     676kB time=7.33 bitrate= 755.6kbits/s dup=0 drop=66    video:673kB audio:0kB global headers:0kB muxing overhead 0.438809%